<?xml version="1.0" standalone="no"?>
<!DOCTYPE svg PUBLIC "-//W3C//DTD SVG 20010904//EN"
 "http://www.w3.org/TR/2001/REC-SVG-20010904/DTD/svg10.dtd">
<svg version="1.0" xmlns="http://www.w3.org/2000/svg"
 width="539.000000pt" height="539.000000pt" viewBox="0 0 539.000000 539.000000"
 preserveAspectRatio="xMidYMid meet">
<metadata>
Created by potrace 1.11, written by Peter Selinger 2001-2013
</metadata>
<g transform="translate(0.000000,539.000000) scale(0.100000,-0.100000)"
fill="#000000" stroke="none">
<path d="M2344 5279 c-133 -8 -189 -19 -354 -69 -215 -66 -313 -105 -494 -200
-355 -184 -487 -287 -752 -585 -324 -365 -471 -642 -621 -1175 l-38 -135 0
-255 c1 -246 10 -521 21 -625 8 -70 67 -304 102 -405 98 -281 248 -553 426
-776 71 -89 364 -377 472 -466 179 -146 533 -329 789 -407 138 -42 301 -80
393 -90 178 -19 720 -10 877 15 228 37 327 67 580 176 219 95 395 200 575 344
113 91 332 309 411 409 154 196 312 475 411 725 46 117 111 322 124 395 3 22
8 47 9 56 3 15 6 74 20 354 2 44 4 170 5 280 l1 200 -51 195 c-58 219 -94 340
-116 387 -8 17 -14 34 -14 38 0 14 -153 312 -211 410 -79 135 -161 236 -347
423 -185 186 -231 228 -334 305 -152 113 -290 190 -515 286 -207 87 -498 175
-633 190 -97 11 -571 11 -736 0z m440 -220 c38 -64 -2 -213 -94 -352 -100
-151 -120 -156 -297 -72 -110 52 -197 111 -271 185 -41 41 -52 58 -52 84 0 39
33 73 105 106 136 62 215 77 425 79 l165 2 19 -32z m631 -135 c80 -21 105 -35
140 -80 41 -52 55 -87 55 -135 0 -101 -124 -229 -248 -254 -29 -6 -37 -3 -67
31 -65 70 -155 288 -155 373 0 21 6 45 13 53 28 37 144 42 262 12z m-1603
-240 c22 -11 39 -35 63 -87 47 -105 58 -162 53 -288 -4 -104 -6 -112 -48 -195
-35 -73 -60 -105 -144 -190 -96 -96 -181 -168 -271 -228 -22 -14 -58 -40 -79
-56 -37 -29 -43 -30 -141 -30 -90 0 -108 3 -151 26 -114 60 -308 232 -335 295
-11 29 -10 36 12 78 27 51 389 421 479 488 214 161 457 242 562 187z m1211
-34 c37 -32 92 -142 83 -166 -11 -28 -263 -8 -338 27 -16 7 -28 20 -28 29 0
25 69 86 130 114 74 34 111 33 153 -4z m1106 -149 c83 -43 375 -365 458 -506
58 -98 93 -216 94 -316 1 -71 -14 -98 -74 -133 -84 -50 -144 -64 -278 -65
-200 -3 -252 23 -460 226 -168 165 -180 187 -187 352 -5 149 7 221 48 283 87
128 167 176 298 177 43 1 74 -5 101 -18z m-1638 -39 c-13 -24 -281 -292 -292
-292 -5 0 -9 17 -9 38 0 89 63 245 105 263 11 4 62 8 113 8 87 1 92 0 83 -17z
m241 -51 c88 -37 221 -132 361 -256 l68 -60 -2 -127 c-1 -127 -1 -128 -25
-128 -13 0 -45 9 -72 19 -53 21 -179 37 -357 46 -60 3 -126 9 -145 13 -33 7
-35 11 -38 50 -7 95 99 439 140 455 21 9 24 8 70 -12z m-2072 -912 c60 -37
165 -173 158 -206 -7 -39 -163 -106 -276 -120 -45 -5 -53 -3 -77 22 -27 26
-28 29 -23 125 4 76 10 108 28 141 28 56 33 59 100 59 39 0 65 -6 90 -21z
m3039 -22 c82 -43 131 -80 131 -97 0 -12 -60 -80 -71 -80 -16 0 -61 55 -85
105 -13 28 -33 65 -45 83 -11 17 -19 32 -16 32 3 0 42 -19 86 -43z m1251 -147
c62 -33 149 -324 167 -557 9 -128 -13 -153 -136 -153 -76 0 -148 21 -244 72
-75 40 -157 116 -157 146 0 64 124 344 187 421 60 73 129 100 183 71z m-524
-107 c64 -34 68 -44 73 -166 3 -105 -9 -187 -28 -187 -10 0 -227 223 -293 301
-27 31 -48 62 -48 69 0 9 29 11 128 8 104 -3 134 -8 168 -25z m-2905 -60 c9
-9 7 -31 -9 -95 -11 -46 -23 -110 -27 -143 -3 -33 -8 -73 -10 -90 -2 -16 -7
-86 -11 -155 -7 -132 -14 -160 -41 -160 -29 0 -116 102 -156 182 -55 113 -69
153 -107 313 -23 94 -25 136 -7 154 16 17 350 12 368 -6z m-604 -55 c41 -45
183 -408 183 -468 0 -27 -23 -25 -89 5 -116 54 -265 185 -304 268 -38 79 -8
141 97 199 44 24 88 23 113 -4z m3294 -235 c87 -45 199 -147 199 -181 0 -50
-117 -249 -180 -306 -55 -49 -88 -54 -230 -30 -19 3 -50 10 -68 16 l-32 10 6
106 c8 145 12 263 13 350 l1 72 109 0 c106 0 111 -1 182 -37z m-3675 -71 c142
-69 237 -148 620 -518 l71 -69 -4 -185 -4 -185 -42 -40 c-78 -76 -162 -143
-204 -165 -81 -42 -314 -65 -405 -40 -74 21 -157 148 -221 340 -38 113 -82
301 -91 390 -11 97 -19 407 -12 442 9 47 50 67 142 67 62 1 80 -4 150 -37z
m4208 -557 c61 -19 108 -48 169 -104 85 -79 95 -122 46 -192 -36 -51 -66 -79
-128 -120 -64 -42 -119 -40 -195 6 -110 66 -146 134 -146 275 0 84 6 97 60
129 42 25 122 28 194 6z m-3176 -462 c84 -124 161 -303 162 -375 l0 -38 -43 0
c-79 0 -143 67 -168 176 -22 99 -21 294 2 294 4 0 26 -26 47 -57z m2758 -73
c27 -14 83 -58 125 -100 118 -118 144 -213 95 -352 -31 -88 -102 -193 -188
-278 -87 -86 -122 -103 -221 -108 l-79 -4 -45 43 -45 44 6 125 c6 138 21 208
89 405 50 148 71 200 94 234 13 21 21 23 67 19 29 -2 74 -15 102 -28z m-406
-51 c0 -50 -89 -162 -155 -197 -78 -40 -211 -51 -242 -19 -14 13 -13 18 3 40
22 29 114 88 224 142 131 66 170 73 170 34z m-1820 -67 c30 -20 56 -44 57 -52
5 -31 -190 -159 -223 -146 -21 8 -17 73 9 148 39 113 55 118 157 50z m784
-155 c-9 -22 -149 -120 -219 -153 -87 -40 -240 -94 -267 -94 -18 0 -19 5 -15
43 7 53 37 199 44 210 2 4 107 7 233 7 172 -1 228 -4 224 -13z m-1523 -101
c61 -13 178 -56 337 -123 18 -8 14 -62 -8 -111 -37 -81 -210 -278 -283 -323
-40 -24 -116 -25 -165 -2 -53 25 -283 259 -310 314 -17 34 -22 64 -22 121 0
88 13 110 75 134 51 19 265 13 376 -10z m2040 -130 c77 -24 130 -56 189 -115
95 -95 127 -188 129 -372 1 -101 -1 -120 -23 -164 -41 -86 -145 -171 -265
-215 -56 -22 -226 -65 -291 -75 -19 -3 -78 -12 -130 -19 -118 -18 -256 -16
-288 4 -30 20 -42 67 -42 168 l0 83 66 122 c84 154 117 204 201 303 92 108
256 272 285 283 35 14 117 13 169 -3z m-491 -72 c0 -12 -90 -117 -181 -211
l-89 -93 -61 0 c-87 0 -135 17 -168 59 -53 67 -48 95 23 125 31 13 341 110
381 119 32 7 95 8 95 1z m-652 -285 c52 -70 52 -71 52 -145 0 -69 -4 -82 -42
-157 -24 -45 -66 -106 -94 -134 -49 -52 -52 -53 -106 -53 -115 0 -267 112
-274 200 -2 39 29 117 63 155 32 36 125 106 177 132 50 26 156 72 166 72 3 1
29 -31 58 -70z"/>
</g>
</svg>
