<svg xmlns="http://www.w3.org/2000/svg" width="16" height="12" viewBox="0 0 16 12">
  <g fill="none" fill-rule="evenodd">
    <ellipse cx="8" cy="6" fill="#D6E9E1" rx="8" ry="6"/>
    <path fill="#000" d="M3.89111328,3.65527344 C4.26774277,3.65527344 4.5586741,3.72827075 4.76391602,3.87426758 C4.96915793,4.0202644 5.07177734,4.18847561 5.07177734,4.37890625 C5.07177734,4.49316463 5.02840213,4.59261025 4.94165039,4.67724609 C4.85489865,4.76188193 4.75016337,4.80419922 4.62744141,4.80419922 C4.54703736,4.80419922 4.47721384,4.78621437 4.41796875,4.75024414 C4.35872366,4.71427391 4.27408909,4.62434968 4.1640625,4.48046875 C3.95670469,4.20540227 3.75146586,4.06787109 3.54833984,4.06787109 C3.37483637,4.06787109 3.22143621,4.13452082 3.08813477,4.26782227 C2.95483332,4.40112371 2.88818359,4.56721906 2.88818359,4.76611328 C2.88818359,4.93961675 2.93050088,5.10782796 3.01513672,5.27075195 C3.09977256,5.43367594 3.31347485,5.69710104 3.65625,6.06103516 C4.12597891,6.56038661 4.36083984,7.03434021 4.36083984,7.48291016 C4.36083984,7.93148011 4.17041206,8.32397293 3.78955078,8.66040039 C3.4086895,8.99682785 2.91780899,9.16503906 2.31689453,9.16503906 C1.81331128,9.16503906 1.43880331,9.06241965 1.19335938,8.85717773 C0.947915439,8.65193582 0.825195312,8.39909004 0.825195312,8.09863281 C0.825195312,7.95052009 0.871744326,7.82779997 0.96484375,7.73046875 C1.05794317,7.63313753 1.17219984,7.58447266 1.30761719,7.58447266 C1.42610736,7.58447266 1.52766885,7.62361615 1.61230469,7.7019043 C1.69694053,7.78019245 1.73925781,7.87223254 1.73925781,7.97802734 C1.73925781,8.02034526 1.73502608,8.07535773 1.7265625,8.14306641 C1.72233071,8.1980797 1.72021484,8.24462872 1.72021484,8.28271484 C1.72021484,8.42236398 1.77945904,8.54085238 1.89794922,8.63818359 C2.0122076,8.73551481 2.16878156,8.78417969 2.36767578,8.78417969 C2.59619255,8.78417969 2.79719965,8.7450362 2.97070312,8.66674805 C3.1442066,8.5884599 3.27962191,8.4699715 3.37695312,8.3112793 C3.47428434,8.1525871 3.52294922,7.99495521 3.52294922,7.83837891 C3.52294922,7.68603439 3.47745814,7.53369217 3.38647461,7.38134766 C3.29549108,7.22900314 3.09131018,6.9772153 2.77392578,6.62597656 C2.33381941,6.13508869 2.11376953,5.66325096 2.11376953,5.21044922 C2.11376953,4.7957336 2.28092281,4.43286288 2.61523438,4.12182617 C2.94954594,3.81078946 3.37483466,3.65527344 3.89111328,3.65527344 Z M8.64746094,2.83300781 C9.08203342,2.83300781 9.41772343,2.91723549 9.65454102,3.08569336 C9.89135861,3.25415123 10.0097656,3.44824109 10.0097656,3.66796875 C10.0097656,3.79980535 9.9597173,3.91455029 9.85961914,4.01220703 C9.75952098,4.10986377 9.63867258,4.15869141 9.49707031,4.15869141 C9.40429641,4.15869141 9.32373081,4.13793966 9.25537109,4.09643555 C9.18701138,4.05493143 9.0893561,3.95117271 8.96240234,3.78515625 C8.72314333,3.46777185 8.4863293,3.30908203 8.25195312,3.30908203 C8.05175681,3.30908203 7.87475663,3.38598556 7.72094727,3.53979492 C7.5671379,3.69360428 7.49023438,3.88525276 7.49023438,4.11474609 C7.49023438,4.31494241 7.53906201,4.50903226 7.63671875,4.69702148 C7.73437549,4.88501071 7.98095505,5.18896274 8.37646484,5.60888672 C8.91845974,6.18506147 9.18945312,6.73193101 9.18945312,7.24951172 C9.18945312,7.76709243 8.96972876,8.21996876 8.53027344,8.6081543 C8.09081812,8.99633983 7.52441753,9.19042969 6.83105469,9.19042969 C6.24999709,9.19042969 5.81787251,9.07202267 5.53466797,8.83520508 C5.25146343,8.59838749 5.10986328,8.30664236 5.10986328,7.95996094 C5.10986328,7.78906165 5.16357368,7.6474615 5.27099609,7.53515625 C5.37841851,7.422851 5.51025312,7.36669922 5.66650391,7.36669922 C5.80322334,7.36669922 5.92040967,7.41186478 6.01806641,7.50219727 C6.11572314,7.59252975 6.16455078,7.69872986 6.16455078,7.82080078 C6.16455078,7.86962915 6.15966802,7.93310508 6.14990234,8.01123047 C6.14501951,8.07470735 6.14257812,8.12841775 6.14257812,8.17236328 C6.14257812,8.3334969 6.21093682,8.47021428 6.34765625,8.58251953 C6.47949285,8.69482478 6.6601551,8.75097656 6.88964844,8.75097656 C7.15332163,8.75097656 7.38525291,8.705811 7.58544922,8.61547852 C7.78564553,8.52514603 7.94189397,8.38842865 8.05419922,8.20532227 C8.16650447,8.02221588 8.22265625,7.84033293 8.22265625,7.65966797 C8.22265625,7.48388584 8.17016654,7.30810635 8.06518555,7.13232422 C7.96020455,6.95654209 7.72461121,6.66601765 7.35839844,6.26074219 C6.8505834,5.69433311 6.59667969,5.14990496 6.59667969,4.62744141 C6.59667969,4.14892339 6.78954885,3.7302264 7.17529297,3.37133789 C7.56103708,3.01244938 8.05175483,2.83300781 8.64746094,2.83300781 Z M11.5844727,9 L10.4931641,9 L11.0058594,7.02978516 C11.2548841,6.06298345 11.472167,5.14502388 11.6577148,4.27587891 C11.7016604,4.06103408 11.7236328,3.92675808 11.7236328,3.87304688 C11.7236328,3.75585879 11.6699224,3.69726562 11.5625,3.69726562 C11.4892574,3.69726562 11.3769539,3.74731395 11.2255859,3.84741211 C11.074218,3.94751027 10.8007832,4.19531052 10.4052734,4.59082031 L10.1782227,4.33447266 C10.646975,3.83154045 11.1144996,3.45434696 11.5808105,3.20288086 C12.0471215,2.95141476 12.4047839,2.82568359 12.6538086,2.82568359 C12.7416997,2.82568359 12.811279,2.84643534 12.8625488,2.88793945 C12.9138186,2.92944357 12.9394531,2.98193328 12.9394531,3.04541016 C12.9394531,3.10888704 12.9077152,3.27734238 12.8442383,3.55078125 L12.5292969,4.86181641 C13.0224634,4.08544534 13.5790985,3.42138948 14.1992188,2.86962891 C14.4970718,2.60595571 14.7460927,2.47412109 14.9462891,2.47412109 C15.0927742,2.47412109 15.2148433,2.52172804 15.3125,2.61694336 C15.4101567,2.71215868 15.4589844,2.82324155 15.4589844,2.95019531 C15.4589844,3.08203191 15.4113774,3.19433547 15.3161621,3.28710938 C15.2209468,3.37988328 14.9829121,3.48974546 14.6020508,3.61669922 C14.2407208,3.73877014 13.9465343,3.88525305 13.7194824,4.05615234 C13.4924305,4.22705164 13.2434096,4.48827949 12.9724121,4.83984375 C12.7014147,5.19140801 12.5122076,5.49780143 12.4047852,5.7590332 C12.2973627,6.02026498 12.1337902,6.62694836 11.9140625,7.57910156 L11.5844727,9 Z"/>
  </g>
</svg>
