<svg xmlns="http://www.w3.org/2000/svg" width="16" height="12" viewBox="0 0 16 12">
  <g fill="none" fill-rule="evenodd">
    <ellipse cx="8" cy="6" fill="#CCE4DA" rx="8" ry="6"/>
    <path fill="#000" d="M6.53759766,3.35888672 C6.97217014,3.35888672 7.30786014,3.44311439 7.54467773,3.61157227 C7.78149532,3.78003014 7.89990234,3.97412 7.89990234,4.19384766 C7.89990234,4.32568425 7.84985402,4.4404292 7.74975586,4.53808594 C7.6496577,4.63574268 7.5288093,4.68457031 7.38720703,4.68457031 C7.29443313,4.68457031 7.21386753,4.66381857 7.14550781,4.62231445 C7.0771481,4.58081034 6.97949282,4.47705161 6.85253906,4.31103516 C6.61328005,3.99365076 6.37646602,3.83496094 6.14208984,3.83496094 C5.94189353,3.83496094 5.76489335,3.91186447 5.61108398,4.06567383 C5.45727462,4.21948319 5.38037109,4.41113167 5.38037109,4.640625 C5.38037109,4.84082131 5.42919873,5.03491117 5.52685547,5.22290039 C5.62451221,5.41088961 5.87109177,5.71484165 6.26660156,6.13476562 C6.80859646,6.71094038 7.07958984,7.25780991 7.07958984,7.77539062 C7.07958984,8.29297134 6.85986548,8.74584767 6.42041016,9.1340332 C5.98095483,9.52221874 5.41455425,9.71630859 4.72119141,9.71630859 C4.14013381,9.71630859 3.70800923,9.59790157 3.42480469,9.36108398 C3.14160015,9.12426639 3,8.83252126 3,8.48583984 C3,8.31494055 3.0537104,8.17334041 3.16113281,8.06103516 C3.26855522,7.94872991 3.40038984,7.89257812 3.55664062,7.89257812 C3.69336006,7.89257812 3.81054639,7.93774369 3.90820312,8.02807617 C4.00585986,8.11840865 4.0546875,8.22460876 4.0546875,8.34667969 C4.0546875,8.39550806 4.04980474,8.45898398 4.04003906,8.53710938 C4.03515623,8.60058625 4.03271484,8.65429666 4.03271484,8.69824219 C4.03271484,8.85937581 4.10107354,8.99609319 4.23779297,9.10839844 C4.36962957,9.22070369 4.55029182,9.27685547 4.77978516,9.27685547 C5.04345835,9.27685547 5.27538962,9.2316899 5.47558594,9.14135742 C5.67578225,9.05102494 5.83203069,8.91430756 5.94433594,8.73120117 C6.05664119,8.54809479 6.11279297,8.36621184 6.11279297,8.18554688 C6.11279297,8.00976475 6.06030326,7.83398525 5.95532227,7.65820312 C5.85034127,7.482421 5.61474792,7.19189656 5.24853516,6.78662109 C4.74072012,6.22021201 4.48681641,5.67578386 4.48681641,5.15332031 C4.48681641,4.67480229 4.67968557,4.25610531 5.06542969,3.8972168 C5.4511738,3.53832828 5.94189155,3.35888672 6.53759766,3.35888672 Z M9.47460938,9.52587891 L8.38330078,9.52587891 L8.89599609,7.55566406 C9.14502078,6.58886235 9.36230376,5.67090278 9.54785156,4.80175781 C9.59179709,4.58691299 9.61376953,4.45263699 9.61376953,4.39892578 C9.61376953,4.2817377 9.56005913,4.22314453 9.45263672,4.22314453 C9.37939417,4.22314453 9.2670906,4.27319286 9.11572266,4.37329102 C8.96435471,4.47338917 8.69091995,4.72118943 8.29541016,5.11669922 L8.06835938,4.86035156 C8.53711172,4.35741936 9.00463634,3.98022587 9.47094727,3.72875977 C9.93725819,3.47729366 10.2949206,3.3515625 10.5439453,3.3515625 C10.6318364,3.3515625 10.7014158,3.37231425 10.7526855,3.41381836 C10.8039553,3.45532247 10.8295898,3.50781218 10.8295898,3.57128906 C10.8295898,3.63476594 10.7978519,3.80322129 10.734375,4.07666016 L10.4194336,5.38769531 C10.9126001,4.61132424 11.4692352,3.94726838 12.0893555,3.39550781 C12.3872085,3.13183462 12.6362295,3 12.8364258,3 C12.9829109,3 13.10498,3.04760695 13.2026367,3.14282227 C13.3002935,3.23803759 13.3491211,3.34912046 13.3491211,3.47607422 C13.3491211,3.60791082 13.3015141,3.72021438 13.2062988,3.81298828 C13.1110835,3.90576218 12.8730488,4.01562437 12.4921875,4.14257812 C12.1308576,4.26464905 11.8366711,4.41113196 11.6096191,4.58203125 C11.3825672,4.75293054 11.1335463,5.0141584 10.8625488,5.36572266 C10.5915514,5.71728691 10.4023443,6.02368033 10.2949219,6.28491211 C10.1874995,6.54614388 10.0239269,7.15282727 9.80419922,8.10498047 L9.47460938,9.52587891 Z"/>
  </g>
</svg>
