<svg xmlns="http://www.w3.org/2000/svg" width="16" height="16" viewBox="0 0 16 16">
  <g fill="none" fill-rule="evenodd" transform="translate(0 2)">
    <ellipse cx="8" cy="6" fill="#5BA7DC" rx="8" ry="6"/>
    <path fill="#000" fill-rule="nonzero" d="M6.36132812,1.9453125 L6.52539062,2.63085938 C6.64726623,3.13086187 6.76789039,3.58085887 6.88726541,3.98085878 L7.03860303,4.46247195 C7.21783082,5.00380494 7.5780074,6.02411934 8.11914062,7.5234375 L8.37226532,6.50531381 L8.37226532,6.50531381 L8.67187542,5.25195126 C8.78906284,4.7701807 8.87239559,4.44726645 8.921875,4.28320312 C9.14062609,3.56054326 9.35156148,3.02929857 9.5546875,2.68945312 C9.75781352,2.34960768 9.98437375,2.10546949 10.234375,1.95703125 C10.4843762,1.80859301 10.7675765,1.734375 11.0839844,1.734375 C11.3378919,1.734375 11.5322259,1.78320264 11.6669922,1.88085938 C11.8017585,1.97851611 11.8691406,2.09570244 11.8691406,2.23242188 C11.8691406,2.33007861 11.8330082,2.41601525 11.7607422,2.49023438 C11.6884762,2.5644535 11.6035161,2.6015625 11.5058594,2.6015625 C11.4589841,2.6015625 11.4069011,2.59288203 11.3496095,2.57552092 L10.9082031,2.40820312 L10.9082031,2.40820312 C10.8378903,2.39257805 10.7617192,2.38476562 10.6796875,2.38476562 C10.4882803,2.38476562 10.3242194,2.44921811 10.1875,2.578125 C9.96549368,2.78580833 9.72297603,3.28069025 9.45994087,4.0627839 L9.38769531,4.28320312 C9.13548051,5.07200915 8.82385552,6.27009771 8.45281311,7.87749721 L8.078125,9.52148438 L7.64966347,8.56500029 C7.46410066,8.14331951 7.32153947,7.80647988 7.22197843,7.55447801 L7.17578125,7.43554688 C6.9648427,6.88476287 6.72461072,6.18945732 6.45507812,5.34960938 L5.81054688,3.32226562 L5.73236088,3.73407003 C5.64544706,4.15366552 5.51209266,4.71605423 5.33229603,5.42124318 L4.81854156,7.37632863 C4.78743056,7.48820319 4.76458341,7.56653623 4.75,7.61132812 C4.5703116,8.13867451 4.37793071,8.54296734 4.17285156,8.82421875 C3.96777241,9.10547016 3.74316528,9.31054623 3.49902344,9.43945312 C3.25488159,9.56836002 2.98632959,9.6328125 2.69335938,9.6328125 C2.32617004,9.6328125 2.0253918,9.55078207 1.79101562,9.38671875 C1.61132723,9.26562439 1.52148438,9.11132906 1.52148438,8.92382812 C1.52148438,8.84179646 1.55468717,8.76855501 1.62109375,8.70410156 C1.68750033,8.63964812 1.76757766,8.60742188 1.86132812,8.60742188 C1.95820361,8.60742188 2.06132787,8.64867146 2.17070291,8.73117163 L2.25390625,8.80078125 C2.5039075,9.03125115 2.73242084,9.14648438 2.93945312,9.14648438 C3.16211049,9.14648438 3.3808583,9.046876 3.59570312,8.84765625 C3.91601723,8.54296723 4.22460789,7.90430174 4.52148438,6.93164062 C4.88086117,5.7558535 5.22656084,4.26368092 5.55859375,2.45507812 C5.42187432,2.45507812 5.16015818,2.49414023 4.7734375,2.57226562 C4.38671682,2.65039102 4.06347786,2.76074147 3.80371094,2.90332031 C3.54394401,3.04589915 3.34472726,3.23144417 3.20605469,3.45996094 C3.06738212,3.68847771 2.99804688,3.92773312 2.99804688,4.17773438 C2.99804688,4.302735 3.01562482,4.42968686 3.05078125,4.55859375 C3.06835946,4.6230472 3.10131818,4.69848614 3.14965805,4.78491191 L3.203125,4.875 C3.2929692,5.01953197 3.33789062,5.12890588 3.33789062,5.203125 C3.33789062,5.29687547 3.30371128,5.37695279 3.23535156,5.44335938 C3.16699185,5.50976596 3.08203176,5.54296875 2.98046875,5.54296875 C2.83203051,5.54296875 2.70507865,5.46582108 2.59960938,5.31152344 C2.4941401,5.15722579 2.44140625,4.92187658 2.44140625,4.60546875 C2.44140625,4.08202863 2.57324087,3.63672059 2.83691406,3.26953125 C3.10058726,2.90234191 3.45312279,2.62500094 3.89453125,2.4375 C4.11953238,2.34374953 4.51202913,2.25250016 5.07202984,2.16375015 L5.5234375,2.09765625 C5.82031398,2.05859355 6.09960807,2.00781281 6.36132812,1.9453125 Z M14.4179688,1.91601562 L14.6054688,1.91601562 L13.796875,5.08007812 L13.1230469,8.015625 C13.0566403,8.26171998 13.0234375,8.42773395 13.0234375,8.51367188 C13.0234375,8.58007846 13.0566403,8.63378886 13.1230469,8.67480469 C13.1761721,8.70761735 13.2830462,8.73480468 13.4436715,8.75636716 L13.5742188,8.77148438 C13.7500009,8.78710945 13.9218742,8.81054672 14.0898438,8.84179688 L13.9726562,9.13476562 L13.0867174,9.04851543 C12.7046868,9.01617171 12.4140635,9 12.2148438,9 C11.7304663,9 11.205081,9.04492143 10.6386719,9.13476562 L10.7382812,8.84179688 C10.9414073,8.7871091 11.1738268,8.73242215 11.4355469,8.67773438 C11.6933607,8.62695287 11.8691402,8.54882865 11.9628906,8.44335938 C12.0917975,8.30663994 12.2265618,7.97851822 12.3671875,7.45898438 L13,5.0390625 L13.2205071,4.01848948 C13.2805338,3.72110658 13.3105469,3.53981403 13.3105469,3.47460938 C13.3105469,3.33788994 13.2539068,3.26953125 13.140625,3.26953125 C13.0546871,3.26953125 12.6621129,3.42577969 11.9628906,3.73828125 L11.8457031,3.4453125 L12.619621,3.07007242 C13.1840343,2.79065597 13.5471532,2.59444811 13.7089844,2.48144531 C13.935548,2.3232414 14.1718738,2.13476672 14.4179688,1.91601562 Z"/>
  </g>
</svg>
