<svg xmlns="http://www.w3.org/2000/svg" width="16" height="16" viewBox="0 0 16 16">
  <g fill="none" fill-rule="evenodd" transform="translate(0 2)">
    <ellipse cx="8" cy="6" fill="#5BA7DC" rx="8" ry="6"/>
    <path fill="#000" fill-rule="nonzero" d="M6.36132812,1.9453125 L6.52539062,2.63085938 C6.64726623,3.13086187 6.76789039,3.58085887 6.88726541,3.98085878 L7.03860303,4.46247195 C7.21783082,5.00380494 7.5780074,6.02411934 8.11914062,7.5234375 L8.37226532,6.50531381 L8.37226532,6.50531381 L8.67187542,5.25195126 C8.78906284,4.7701807 8.87239559,4.44726645 8.921875,4.28320312 C9.14062609,3.56054326 9.35156148,3.02929857 9.5546875,2.68945312 C9.75781352,2.34960768 9.98437375,2.10546949 10.234375,1.95703125 C10.4843762,1.80859301 10.7675765,1.734375 11.0839844,1.734375 C11.3378919,1.734375 11.5322259,1.78320264 11.6669922,1.88085938 C11.8017585,1.97851611 11.8691406,2.09570244 11.8691406,2.23242188 C11.8691406,2.33007861 11.8330082,2.41601525 11.7607422,2.49023438 C11.6884762,2.5644535 11.6035161,2.6015625 11.5058594,2.6015625 C11.4589841,2.6015625 11.4069011,2.59288203 11.3496095,2.57552092 L10.9082031,2.40820312 L10.9082031,2.40820312 C10.8378903,2.39257805 10.7617192,2.38476562 10.6796875,2.38476562 C10.4882803,2.38476562 10.3242194,2.44921811 10.1875,2.578125 C9.96549368,2.78580833 9.72297603,3.28069025 9.45994087,4.0627839 L9.38769531,4.28320312 C9.13548051,5.07200915 8.82385552,6.27009771 8.45281311,7.87749721 L8.078125,9.52148438 L7.64966347,8.56500029 C7.46410066,8.14331951 7.32153947,7.80647988 7.22197843,7.55447801 L7.17578125,7.43554688 C6.9648427,6.88476287 6.72461072,6.18945732 6.45507812,5.34960938 L5.81054688,3.32226562 L5.73236088,3.73407003 C5.64544706,4.15366552 5.51209266,4.71605423 5.33229603,5.42124318 L4.81854156,7.37632863 C4.78743056,7.48820319 4.76458341,7.56653623 4.75,7.61132812 C4.5703116,8.13867451 4.37793071,8.54296734 4.17285156,8.82421875 C3.96777241,9.10547016 3.74316528,9.31054623 3.49902344,9.43945312 C3.25488159,9.56836002 2.98632959,9.6328125 2.69335938,9.6328125 C2.32617004,9.6328125 2.0253918,9.55078207 1.79101562,9.38671875 C1.61132723,9.26562439 1.52148438,9.11132906 1.52148438,8.92382812 C1.52148438,8.84179646 1.55468717,8.76855501 1.62109375,8.70410156 C1.68750033,8.63964812 1.76757766,8.60742188 1.86132812,8.60742188 C1.95820361,8.60742188 2.06132787,8.64867146 2.17070291,8.73117163 L2.25390625,8.80078125 C2.5039075,9.03125115 2.73242084,9.14648438 2.93945312,9.14648438 C3.16211049,9.14648438 3.3808583,9.046876 3.59570312,8.84765625 C3.91601723,8.54296723 4.22460789,7.90430174 4.52148438,6.93164062 C4.88086117,5.7558535 5.22656084,4.26368092 5.55859375,2.45507812 C5.42187432,2.45507812 5.16015818,2.49414023 4.7734375,2.57226562 C4.38671682,2.65039102 4.06347786,2.76074147 3.80371094,2.90332031 C3.54394401,3.04589915 3.34472726,3.23144417 3.20605469,3.45996094 C3.06738212,3.68847771 2.99804688,3.92773312 2.99804688,4.17773438 C2.99804688,4.302735 3.01562482,4.42968686 3.05078125,4.55859375 C3.06835946,4.6230472 3.10131818,4.69848614 3.14965805,4.78491191 L3.203125,4.875 C3.2929692,5.01953197 3.33789062,5.12890588 3.33789062,5.203125 C3.33789062,5.29687547 3.30371128,5.37695279 3.23535156,5.44335938 C3.16699185,5.50976596 3.08203176,5.54296875 2.98046875,5.54296875 C2.83203051,5.54296875 2.70507865,5.46582108 2.59960938,5.31152344 C2.4941401,5.15722579 2.44140625,4.92187658 2.44140625,4.60546875 C2.44140625,4.08202863 2.57324087,3.63672059 2.83691406,3.26953125 C3.10058726,2.90234191 3.45312279,2.62500094 3.89453125,2.4375 C4.11953237,2.34374953 4.51202913,2.25250016 5.07202984,2.16375015 L5.5234375,2.09765625 C5.82031398,2.05859355 6.09960807,2.00781281 6.36132812,1.9453125 Z M11.8984375,3.3515625 L11.6582031,3.18164062 L11.9082038,2.90415136 C12.1816415,2.6091086 12.3912753,2.414497 12.5371094,2.3203125 C12.8769548,2.10156141 13.2226545,1.9921875 13.5742188,1.9921875 C13.9335955,1.9921875 14.2167958,2.08398346 14.4238281,2.26757812 C14.6308604,2.45117279 14.734375,2.68749855 14.734375,2.9765625 C14.734375,3.58594055 14.2734421,4.23241846 13.3515625,4.91601562 C13.6679703,4.9316407 13.9082023,4.98828076 14.0722656,5.0859375 C14.2363289,5.18359424 14.3701167,5.33300681 14.4736328,5.53417969 C14.577149,5.73535257 14.6289062,5.97460799 14.6289062,6.25195312 C14.6289062,7.00586314 14.2480507,7.70702801 13.4863281,8.35546875 C12.8339811,8.91015902 12.1640659,9.1875 11.4765625,9.1875 C11.1679672,9.1875 10.8896497,9.1171882 10.6416016,8.9765625 C10.3935534,8.8359368 10.2695312,8.66211041 10.2695312,8.45507812 C10.2695312,8.3691402 10.3017575,8.29394563 10.3662109,8.22949219 C10.4306644,8.16503874 10.5058589,8.1328125 10.5917969,8.1328125 C10.708985,8.1328125 10.8437492,8.2050774 10.9960938,8.34960938 C11.1953135,8.54101658 11.3437495,8.66015602 11.4414062,8.70703125 C11.5781257,8.77343783 11.6992182,8.80664062 11.8046875,8.80664062 C12.1093765,8.80664062 12.4492169,8.62695492 12.8242188,8.26757812 C13.378909,7.74413801 13.65625,7.16601879 13.65625,6.53320312 C13.65625,6.21679529 13.5693368,5.96386813 13.3955078,5.77441406 C13.2216788,5.58495999 12.9980482,5.49023438 12.7246094,5.49023438 C12.5253896,5.49023438 12.2988294,5.5351558 12.0449219,5.625 L12.0859375,5.26171875 C12.58594,5.08593662 13.0351543,4.77539285 13.4335938,4.33007812 C13.7148452,4.01757656 13.8554688,3.70117348 13.8554688,3.38085938 C13.8554688,3.13867066 13.7939459,2.94921943 13.6708984,2.8125 C13.5478509,2.67578057 13.3808604,2.60742188 13.1699219,2.60742188 C12.7246071,2.60742188 12.3007833,2.85546627 11.8984375,3.3515625 Z"/>
  </g>
</svg>
